<mxfile host="www.draw.io" modified="2020-04-01T15:52:45.675Z" agent="5.0 (Windows NT 10.0; Win64; x64) AppleWebKit/537.36 (KHTML, like Gecko) Chrome/80.0.3987.149 Safari/537.36" etag="9mUDx6vUWguDE7H8VwRJ" version="12.9.6" type="github">
  <diagram id="CQYaAHjqZ7QAorhqhi28" name="Page-1">
    <mxGraphModel dx="4527" dy="2669" grid="1" gridSize="10" guides="1" tooltips="1" connect="1" arrows="1" fold="1" page="1" pageScale="1" pageWidth="827" pageHeight="1169" math="0" shadow="0">
      <root>
        <mxCell id="0" />
        <mxCell id="1" parent="0" />
        <mxCell id="1BS-HU7HtbE8BR-Be_lK-4" value="0,n" style="endArrow=none;html=1;fontSize=25;fontStyle=1" parent="1" source="c2bkHcko6VeSwUFlFjgx-63" target="1BS-HU7HtbE8BR-Be_lK-3" edge="1">
          <mxGeometry width="50" height="50" relative="1" as="geometry">
            <mxPoint x="509" y="-390" as="sourcePoint" />
            <mxPoint x="410" y="-740" as="targetPoint" />
          </mxGeometry>
        </mxCell>
        <mxCell id="1BS-HU7HtbE8BR-Be_lK-5" value="Wishlist" style="rounded=0;whiteSpace=wrap;html=1;fontSize=25;fontStyle=1;strokeWidth=5;" parent="1" vertex="1">
          <mxGeometry x="-220" y="-390" width="160" height="80" as="geometry" />
        </mxCell>
        <mxCell id="1BS-HU7HtbE8BR-Be_lK-6" value="1,1" style="endArrow=none;html=1;fontSize=25;fontStyle=1" parent="1" source="c2bkHcko6VeSwUFlFjgx-14" target="1BS-HU7HtbE8BR-Be_lK-5" edge="1">
          <mxGeometry width="50" height="50" relative="1" as="geometry">
            <mxPoint x="-160" y="-350" as="sourcePoint" />
            <mxPoint x="-280" y="-370" as="targetPoint" />
          </mxGeometry>
        </mxCell>
        <mxCell id="1BS-HU7HtbE8BR-Be_lK-8" value="Cart" style="rounded=0;whiteSpace=wrap;html=1;fontSize=25;fontStyle=1;strokeWidth=5;" parent="1" vertex="1">
          <mxGeometry x="-240" y="-90" width="160" height="80" as="geometry" />
        </mxCell>
        <mxCell id="1BS-HU7HtbE8BR-Be_lK-9" value="1,1" style="endArrow=none;html=1;fontSize=25;fontStyle=1" parent="1" source="c2bkHcko6VeSwUFlFjgx-16" target="1BS-HU7HtbE8BR-Be_lK-1" edge="1">
          <mxGeometry width="50" height="50" relative="1" as="geometry">
            <mxPoint x="-456.83732057416273" y="-119.66507177033486" as="sourcePoint" />
            <mxPoint x="-666.1612903225807" y="-360" as="targetPoint" />
          </mxGeometry>
        </mxCell>
        <mxCell id="1BS-HU7HtbE8BR-Be_lK-10" value="0,n" style="endArrow=none;html=1;fontSize=25;fontStyle=1;" parent="1" source="c2bkHcko6VeSwUFlFjgx-44" target="1BS-HU7HtbE8BR-Be_lK-2" edge="1">
          <mxGeometry width="50" height="50" relative="1" as="geometry">
            <mxPoint x="-160" y="-350" as="sourcePoint" />
            <mxPoint x="-110" y="-400" as="targetPoint" />
          </mxGeometry>
        </mxCell>
        <mxCell id="1BS-HU7HtbE8BR-Be_lK-12" value="0,n" style="endArrow=none;html=1;fontSize=25;fontStyle=1" parent="1" source="c2bkHcko6VeSwUFlFjgx-24" target="1BS-HU7HtbE8BR-Be_lK-1" edge="1">
          <mxGeometry width="50" height="50" relative="1" as="geometry">
            <mxPoint x="-100" y="-250" as="sourcePoint" />
            <mxPoint x="-50" y="-300" as="targetPoint" />
          </mxGeometry>
        </mxCell>
        <mxCell id="1BS-HU7HtbE8BR-Be_lK-14" value="0,n" style="endArrow=none;html=1;fontSize=25;fontStyle=1" parent="1" source="c2bkHcko6VeSwUFlFjgx-20" target="1BS-HU7HtbE8BR-Be_lK-1" edge="1">
          <mxGeometry width="50" height="50" relative="1" as="geometry">
            <mxPoint x="-720" y="-260" as="sourcePoint" />
            <mxPoint x="-720" y="-340" as="targetPoint" />
          </mxGeometry>
        </mxCell>
        <mxCell id="1BS-HU7HtbE8BR-Be_lK-16" value="0,n" style="endArrow=none;html=1;fontSize=25;fontStyle=1;" parent="1" source="c2bkHcko6VeSwUFlFjgx-18" target="1BS-HU7HtbE8BR-Be_lK-1" edge="1">
          <mxGeometry width="50" height="50" relative="1" as="geometry">
            <mxPoint x="-594.2307692307693" y="-150" as="sourcePoint" />
            <mxPoint x="-30" y="-300" as="targetPoint" />
          </mxGeometry>
        </mxCell>
        <mxCell id="1BS-HU7HtbE8BR-Be_lK-17" value="1,1" style="endArrow=none;html=1;fontSize=25;fontStyle=1" parent="1" source="c2bkHcko6VeSwUFlFjgx-22" target="1BS-HU7HtbE8BR-Be_lK-15" edge="1">
          <mxGeometry width="50" height="50" relative="1" as="geometry">
            <mxPoint x="-150" y="-20" as="sourcePoint" />
            <mxPoint x="-270" y="105" as="targetPoint" />
          </mxGeometry>
        </mxCell>
        <mxCell id="1BS-HU7HtbE8BR-Be_lK-18" value="1,1" style="endArrow=none;html=1;fontSize=25;fontStyle=1;" parent="1" source="c2bkHcko6VeSwUFlFjgx-27" target="1BS-HU7HtbE8BR-Be_lK-15" edge="1">
          <mxGeometry width="50" height="50" relative="1" as="geometry">
            <mxPoint x="-150" y="-20" as="sourcePoint" />
            <mxPoint x="-270" y="210" as="targetPoint" />
          </mxGeometry>
        </mxCell>
        <mxCell id="1BS-HU7HtbE8BR-Be_lK-19" value="0,n" style="endArrow=none;html=1;fontSize=25;fontStyle=1" parent="1" source="c2bkHcko6VeSwUFlFjgx-37" target="1BS-HU7HtbE8BR-Be_lK-2" edge="1">
          <mxGeometry width="50" height="50" relative="1" as="geometry">
            <mxPoint x="80" y="-266" as="sourcePoint" />
            <mxPoint x="-90" y="-300" as="targetPoint" />
          </mxGeometry>
        </mxCell>
        <mxCell id="1BS-HU7HtbE8BR-Be_lK-24" value="0,n" style="endArrow=none;html=1;fontSize=25;fontStyle=1;" parent="1" source="1BS-HU7HtbE8BR-Be_lK-1" target="c2bkHcko6VeSwUFlFjgx-4" edge="1">
          <mxGeometry width="50" height="50" relative="1" as="geometry">
            <mxPoint x="-300" y="-560" as="sourcePoint" />
            <mxPoint x="-740" y="-630" as="targetPoint" />
          </mxGeometry>
        </mxCell>
        <mxCell id="1BS-HU7HtbE8BR-Be_lK-30" value="0,n" style="endArrow=none;html=1;fontSize=25;fontStyle=1" parent="1" source="c2bkHcko6VeSwUFlFjgx-74" target="1BS-HU7HtbE8BR-Be_lK-29" edge="1">
          <mxGeometry width="50" height="50" relative="1" as="geometry">
            <mxPoint x="387.25" y="-390" as="sourcePoint" />
            <mxPoint x="437.25" y="-440" as="targetPoint" />
          </mxGeometry>
        </mxCell>
        <mxCell id="1BS-HU7HtbE8BR-Be_lK-32" value="1,n" style="endArrow=none;html=1;fontSize=25;fontStyle=1" parent="1" source="c2bkHcko6VeSwUFlFjgx-78" target="1BS-HU7HtbE8BR-Be_lK-2" edge="1">
          <mxGeometry width="50" height="50" relative="1" as="geometry">
            <mxPoint x="259.5" y="-260" as="sourcePoint" />
            <mxPoint x="309.5" y="-310" as="targetPoint" />
          </mxGeometry>
        </mxCell>
        <mxCell id="1BS-HU7HtbE8BR-Be_lK-36" value="1,1" style="endArrow=none;html=1;fontSize=25;fontStyle=1" parent="1" source="c2bkHcko6VeSwUFlFjgx-32" target="1BS-HU7HtbE8BR-Be_lK-15" edge="1">
          <mxGeometry width="50" height="50" relative="1" as="geometry">
            <mxPoint x="-170" y="110" as="sourcePoint" />
            <mxPoint x="-170" y="160" as="targetPoint" />
          </mxGeometry>
        </mxCell>
        <mxCell id="1BS-HU7HtbE8BR-Be_lK-42" value="1,n" style="endArrow=none;html=1;fontSize=25;fontStyle=1" parent="1" source="c2bkHcko6VeSwUFlFjgx-65" target="1BS-HU7HtbE8BR-Be_lK-41" edge="1">
          <mxGeometry width="50" height="50" relative="1" as="geometry">
            <mxPoint x="320" y="-90" as="sourcePoint" />
            <mxPoint x="670" y="-740" as="targetPoint" />
          </mxGeometry>
        </mxCell>
        <mxCell id="1BS-HU7HtbE8BR-Be_lK-45" value="1,1" style="endArrow=none;html=1;fontSize=25;fontStyle=1" parent="1" source="c2bkHcko6VeSwUFlFjgx-10" target="1BS-HU7HtbE8BR-Be_lK-43" edge="1">
          <mxGeometry width="50" height="50" relative="1" as="geometry">
            <mxPoint x="-80" y="-710" as="sourcePoint" />
            <mxPoint x="-379" y="-760" as="targetPoint" />
          </mxGeometry>
        </mxCell>
        <mxCell id="1BS-HU7HtbE8BR-Be_lK-49" value="0,n" style="endArrow=none;html=1;fontSize=25;fontStyle=1" parent="1" source="c2bkHcko6VeSwUFlFjgx-12" target="1BS-HU7HtbE8BR-Be_lK-43" edge="1">
          <mxGeometry width="50" height="50" relative="1" as="geometry">
            <mxPoint x="-80" y="-380" as="sourcePoint" />
            <mxPoint x="-157" y="-600" as="targetPoint" />
          </mxGeometry>
        </mxCell>
        <mxCell id="c2bkHcko6VeSwUFlFjgx-4" value="Write" style="rhombus;whiteSpace=wrap;html=1;fontSize=25;fontStyle=1;fillColor=#fff2cc;strokeColor=#d6b656;" parent="1" vertex="1">
          <mxGeometry x="-790" y="-930" width="200" height="80" as="geometry" />
        </mxCell>
        <mxCell id="c2bkHcko6VeSwUFlFjgx-6" value="Answering" style="rhombus;whiteSpace=wrap;html=1;fontSize=25;fontStyle=1;fillColor=#fff2cc;strokeColor=#d6b656;" parent="1" vertex="1">
          <mxGeometry x="-750" y="-510" width="200" height="80" as="geometry" />
        </mxCell>
        <mxCell id="c2bkHcko6VeSwUFlFjgx-10" value="Asking" style="rhombus;whiteSpace=wrap;html=1;fontSize=25;fontStyle=1;fillColor=#fff2cc;strokeColor=#d6b656;" parent="1" vertex="1">
          <mxGeometry x="-790" y="-740" width="200" height="80" as="geometry" />
        </mxCell>
        <mxCell id="c2bkHcko6VeSwUFlFjgx-11" value="0,n" style="endArrow=none;html=1;fontSize=25;fontStyle=1" parent="1" source="1BS-HU7HtbE8BR-Be_lK-1" target="c2bkHcko6VeSwUFlFjgx-10" edge="1">
          <mxGeometry width="50" height="50" relative="1" as="geometry">
            <mxPoint x="-610" y="-480" as="sourcePoint" />
            <mxPoint x="-170" y="-720" as="targetPoint" />
          </mxGeometry>
        </mxCell>
        <mxCell id="c2bkHcko6VeSwUFlFjgx-12" value="Reply" style="rhombus;whiteSpace=wrap;html=1;fontSize=25;fontStyle=1;fillColor=#fff2cc;strokeColor=#d6b656;" parent="1" vertex="1">
          <mxGeometry x="-247" y="-620" width="200" height="80" as="geometry" />
        </mxCell>
        <mxCell id="c2bkHcko6VeSwUFlFjgx-13" value="1,1" style="endArrow=none;html=1;fontSize=25;fontStyle=1" parent="1" source="1BS-HU7HtbE8BR-Be_lK-48" target="c2bkHcko6VeSwUFlFjgx-12" edge="1">
          <mxGeometry width="50" height="50" relative="1" as="geometry">
            <mxPoint x="-150" y="-510" as="sourcePoint" />
            <mxPoint x="-130" y="-490" as="targetPoint" />
          </mxGeometry>
        </mxCell>
        <mxCell id="c2bkHcko6VeSwUFlFjgx-14" value="Wish" style="rhombus;whiteSpace=wrap;html=1;fontSize=25;fontStyle=1;fillColor=#fff2cc;strokeColor=#d6b656;" parent="1" vertex="1">
          <mxGeometry x="-750" y="-410" width="200" height="80" as="geometry" />
        </mxCell>
        <mxCell id="c2bkHcko6VeSwUFlFjgx-16" value="Make" style="rhombus;whiteSpace=wrap;html=1;fontSize=25;fontStyle=1;fillColor=#fff2cc;strokeColor=#d6b656;" parent="1" vertex="1">
          <mxGeometry x="-750" y="-160" width="200" height="80" as="geometry" />
        </mxCell>
        <mxCell id="c2bkHcko6VeSwUFlFjgx-17" value="1,1" style="endArrow=none;html=1;fontSize=25;fontStyle=1;" parent="1" source="1BS-HU7HtbE8BR-Be_lK-8" target="c2bkHcko6VeSwUFlFjgx-16" edge="1">
          <mxGeometry width="50" height="50" relative="1" as="geometry">
            <mxPoint x="-290" y="-80" as="sourcePoint" />
            <mxPoint x="-300" y="-110" as="targetPoint" />
          </mxGeometry>
        </mxCell>
        <mxCell id="c2bkHcko6VeSwUFlFjgx-18" value="Buy" style="rhombus;whiteSpace=wrap;html=1;fontSize=25;fontStyle=1;fillColor=#fff2cc;strokeColor=#d6b656;" parent="1" vertex="1">
          <mxGeometry x="-750" y="-30" width="200" height="80" as="geometry" />
        </mxCell>
        <mxCell id="c2bkHcko6VeSwUFlFjgx-20" value="Use" style="rhombus;whiteSpace=wrap;html=1;fontSize=25;fontStyle=1;fillColor=#fff2cc;strokeColor=#d6b656;" parent="1" vertex="1">
          <mxGeometry x="-1000" y="-120" width="200" height="80" as="geometry" />
        </mxCell>
        <mxCell id="c2bkHcko6VeSwUFlFjgx-21" value="1,1" style="endArrow=none;html=1;fontSize=25;fontStyle=1;fillColor=#fff2cc;strokeColor=#000000;fontColor=#000000;" parent="1" source="1BS-HU7HtbE8BR-Be_lK-13" target="c2bkHcko6VeSwUFlFjgx-20" edge="1">
          <mxGeometry width="50" height="50" relative="1" as="geometry">
            <mxPoint x="-730" as="sourcePoint" />
            <mxPoint x="-720" y="-180" as="targetPoint" />
            <mxPoint as="offset" />
          </mxGeometry>
        </mxCell>
        <mxCell id="c2bkHcko6VeSwUFlFjgx-22" value="Billing" style="rhombus;whiteSpace=wrap;html=1;fontSize=25;fontStyle=1;fillColor=#fff2cc;strokeColor=#d6b656;" parent="1" vertex="1">
          <mxGeometry x="-550" y="65" width="200" height="80" as="geometry" />
        </mxCell>
        <mxCell id="c2bkHcko6VeSwUFlFjgx-23" value="0,n" style="endArrow=none;html=1;fontSize=25;fontStyle=1" parent="1" source="1BS-HU7HtbE8BR-Be_lK-13" target="c2bkHcko6VeSwUFlFjgx-22" edge="1">
          <mxGeometry width="50" height="50" relative="1" as="geometry">
            <mxPoint x="-550" y="70" as="sourcePoint" />
            <mxPoint x="-540" y="80" as="targetPoint" />
          </mxGeometry>
        </mxCell>
        <mxCell id="c2bkHcko6VeSwUFlFjgx-24" value="Locate" style="rhombus;whiteSpace=wrap;html=1;fontSize=25;fontStyle=1;fillColor=#fff2cc;strokeColor=#d6b656;" parent="1" vertex="1">
          <mxGeometry x="-1320" y="-45" width="200" height="80" as="geometry" />
        </mxCell>
        <mxCell id="c2bkHcko6VeSwUFlFjgx-27" value="Send" style="rhombus;whiteSpace=wrap;html=1;fontSize=25;fontStyle=1;fillColor=#fff2cc;strokeColor=#d6b656;" parent="1" vertex="1">
          <mxGeometry x="-620" y="260" width="200" height="80" as="geometry" />
        </mxCell>
        <mxCell id="c2bkHcko6VeSwUFlFjgx-28" value="0,n" style="endArrow=none;html=1;fontSize=25;fontStyle=1" parent="1" source="1BS-HU7HtbE8BR-Be_lK-11" target="c2bkHcko6VeSwUFlFjgx-27" edge="1">
          <mxGeometry width="50" height="50" relative="1" as="geometry">
            <mxPoint x="-780" y="285" as="sourcePoint" />
            <mxPoint x="-180" y="150" as="targetPoint" />
          </mxGeometry>
        </mxCell>
        <mxCell id="c2bkHcko6VeSwUFlFjgx-32" value="Start" style="rhombus;whiteSpace=wrap;html=1;fontSize=25;fontStyle=1;fillColor=#fff2cc;strokeColor=#d6b656;" parent="1" vertex="1">
          <mxGeometry x="-360" y="270" width="200" height="80" as="geometry" />
        </mxCell>
        <mxCell id="c2bkHcko6VeSwUFlFjgx-33" value="1,1" style="endArrow=none;html=1;fontSize=25;fontStyle=1" parent="1" source="1BS-HU7HtbE8BR-Be_lK-37" target="c2bkHcko6VeSwUFlFjgx-32" edge="1">
          <mxGeometry width="50" height="50" relative="1" as="geometry">
            <mxPoint x="-110" y="340" as="sourcePoint" />
            <mxPoint x="-190" y="310" as="targetPoint" />
          </mxGeometry>
        </mxCell>
        <mxCell id="c2bkHcko6VeSwUFlFjgx-35" value="Take up" style="rhombus;whiteSpace=wrap;html=1;fontSize=25;fontStyle=1;fillColor=#fff2cc;strokeColor=#d6b656;" parent="1" vertex="1">
          <mxGeometry x="-630" y="450" width="200" height="80" as="geometry" />
        </mxCell>
        <mxCell id="c2bkHcko6VeSwUFlFjgx-36" value="0,n" style="endArrow=none;html=1;fontSize=25;fontStyle=1" parent="1" source="1BS-HU7HtbE8BR-Be_lK-38" target="c2bkHcko6VeSwUFlFjgx-35" edge="1">
          <mxGeometry width="50" height="50" relative="1" as="geometry">
            <mxPoint x="-660" y="380" as="sourcePoint" />
            <mxPoint x="-180" y="325" as="targetPoint" />
          </mxGeometry>
        </mxCell>
        <mxCell id="c2bkHcko6VeSwUFlFjgx-38" value="1,n" style="endArrow=none;html=1;fontSize=25;fontStyle=1" parent="1" source="1BS-HU7HtbE8BR-Be_lK-15" target="c2bkHcko6VeSwUFlFjgx-37" edge="1">
          <mxGeometry width="50" height="50" relative="1" as="geometry">
            <mxPoint x="-80" y="105" as="sourcePoint" />
            <mxPoint x="20" y="100" as="targetPoint" />
          </mxGeometry>
        </mxCell>
        <mxCell id="c2bkHcko6VeSwUFlFjgx-52" value="Remember" style="rhombus;whiteSpace=wrap;html=1;fontSize=25;fontStyle=1;fillColor=#fff2cc;strokeColor=#d6b656;" parent="1" vertex="1">
          <mxGeometry x="60" y="-390" width="200" height="80" as="geometry" />
        </mxCell>
        <mxCell id="c2bkHcko6VeSwUFlFjgx-54" value="Interrogate" style="rhombus;whiteSpace=wrap;html=1;fontSize=25;fontStyle=1;fillColor=#fff2cc;strokeColor=#d6b656;" parent="1" vertex="1">
          <mxGeometry x="70" y="-710" width="200" height="80" as="geometry" />
        </mxCell>
        <mxCell id="c2bkHcko6VeSwUFlFjgx-56" value="Reviewing" style="rhombus;whiteSpace=wrap;html=1;fontSize=25;fontStyle=1;fillColor=#fff2cc;strokeColor=#d6b656;" parent="1" vertex="1">
          <mxGeometry x="60" y="-910" width="200" height="80" as="geometry" />
        </mxCell>
        <mxCell id="c2bkHcko6VeSwUFlFjgx-57" value="0,n" style="endArrow=none;html=1;entryX=1;entryY=0.5;entryDx=0;entryDy=0;fontSize=25;fontStyle=1" parent="1" source="1BS-HU7HtbE8BR-Be_lK-2" target="c2bkHcko6VeSwUFlFjgx-56" edge="1">
          <mxGeometry width="50" height="50" relative="1" as="geometry">
            <mxPoint x="430" y="-480" as="sourcePoint" />
            <mxPoint x="-70" y="-810" as="targetPoint" />
          </mxGeometry>
        </mxCell>
        <mxCell id="c2bkHcko6VeSwUFlFjgx-63" value="Belong" style="rhombus;whiteSpace=wrap;html=1;fontSize=25;fontStyle=1;fillColor=#fff2cc;strokeColor=#d6b656;" parent="1" vertex="1">
          <mxGeometry x="370" y="-600" width="200" height="80" as="geometry" />
        </mxCell>
        <mxCell id="c2bkHcko6VeSwUFlFjgx-64" value="1,n" style="endArrow=none;html=1;fontSize=25;fontStyle=1" parent="1" source="1BS-HU7HtbE8BR-Be_lK-2" target="c2bkHcko6VeSwUFlFjgx-63" edge="1">
          <mxGeometry width="50" height="50" relative="1" as="geometry">
            <mxPoint x="439.5" y="-480" as="sourcePoint" />
            <mxPoint x="376.5" y="-770" as="targetPoint" />
          </mxGeometry>
        </mxCell>
        <mxCell id="c2bkHcko6VeSwUFlFjgx-65" value="Display" style="rhombus;whiteSpace=wrap;html=1;fontSize=25;fontStyle=1;fillColor=#fff2cc;strokeColor=#d6b656;" parent="1" vertex="1">
          <mxGeometry x="575" y="-620" width="200" height="80" as="geometry" />
        </mxCell>
        <mxCell id="c2bkHcko6VeSwUFlFjgx-66" value="0,n" style="endArrow=none;html=1;fontSize=25;fontStyle=1" parent="1" source="1BS-HU7HtbE8BR-Be_lK-2" target="c2bkHcko6VeSwUFlFjgx-65" edge="1">
          <mxGeometry width="50" height="50" relative="1" as="geometry">
            <mxPoint x="479.5" y="-480" as="sourcePoint" />
            <mxPoint x="670" y="-580" as="targetPoint" />
          </mxGeometry>
        </mxCell>
        <mxCell id="c2bkHcko6VeSwUFlFjgx-71" value="Describe" style="rhombus;whiteSpace=wrap;html=1;fontSize=25;fontStyle=1;fillColor=#fff2cc;strokeColor=#d6b656;" parent="1" vertex="1">
          <mxGeometry x="730" y="-490" width="200" height="80" as="geometry" />
        </mxCell>
        <mxCell id="c2bkHcko6VeSwUFlFjgx-74" value="Craft" style="rhombus;whiteSpace=wrap;html=1;fontSize=25;fontStyle=1;fillColor=#fff2cc;strokeColor=#d6b656;" parent="1" vertex="1">
          <mxGeometry x="730" y="-370" width="200" height="80" as="geometry" />
        </mxCell>
        <mxCell id="c2bkHcko6VeSwUFlFjgx-75" value="1,1" style="endArrow=none;html=1;fontSize=25;fontStyle=1" parent="1" source="1BS-HU7HtbE8BR-Be_lK-2" target="c2bkHcko6VeSwUFlFjgx-74" edge="1">
          <mxGeometry width="50" height="50" relative="1" as="geometry">
            <mxPoint x="519.5" y="-440" as="sourcePoint" />
            <mxPoint x="670" y="-420" as="targetPoint" />
          </mxGeometry>
        </mxCell>
        <mxCell id="c2bkHcko6VeSwUFlFjgx-76" value="Redeem" style="rhombus;whiteSpace=wrap;html=1;fontSize=25;fontStyle=1;fillColor=#fff2cc;strokeColor=#d6b656;" parent="1" vertex="1">
          <mxGeometry x="-750" y="-300" width="200" height="80" as="geometry" />
        </mxCell>
        <mxCell id="c2bkHcko6VeSwUFlFjgx-78" value="Distinguish" style="rhombus;whiteSpace=wrap;html=1;fontSize=25;fontStyle=1;fillColor=#fff2cc;strokeColor=#d6b656;" parent="1" vertex="1">
          <mxGeometry x="730" y="-260" width="200" height="80" as="geometry" />
        </mxCell>
        <mxCell id="-YLVVvJB87jnQkhJQOnv-36" value="Billing address" style="rhombus;whiteSpace=wrap;html=1;fontSize=25;fontStyle=1;fillColor=#fff2cc;strokeColor=#d6b656;" parent="1" vertex="1">
          <mxGeometry x="-1120" y="90" width="200" height="80" as="geometry" />
        </mxCell>
        <mxCell id="-YLVVvJB87jnQkhJQOnv-37" value="0,n" style="endArrow=none;html=1;strokeColor=#000000;fontSize=25;fontColor=#000000;fontStyle=1" parent="1" source="-YLVVvJB87jnQkhJQOnv-36" target="1BS-HU7HtbE8BR-Be_lK-13" edge="1">
          <mxGeometry width="50" height="50" relative="1" as="geometry">
            <mxPoint x="-910" y="260" as="sourcePoint" />
            <mxPoint x="-860" y="210" as="targetPoint" />
          </mxGeometry>
        </mxCell>
        <mxCell id="-YLVVvJB87jnQkhJQOnv-38" value="0,n" style="endArrow=none;html=1;strokeColor=#000000;fontSize=25;fontColor=#000000;fontStyle=1" parent="1" source="1BS-HU7HtbE8BR-Be_lK-11" target="-YLVVvJB87jnQkhJQOnv-36" edge="1">
          <mxGeometry width="50" height="50" relative="1" as="geometry">
            <mxPoint x="-910" y="260" as="sourcePoint" />
            <mxPoint x="-860" y="210" as="targetPoint" />
          </mxGeometry>
        </mxCell>
        <mxCell id="wcDNg7Z-eRSndHOin9jh-14" value="0,n" style="endArrow=none;html=1;fontSize=25;fontStyle=1" parent="1" source="c2bkHcko6VeSwUFlFjgx-71" target="1BS-HU7HtbE8BR-Be_lK-2" edge="1">
          <mxGeometry width="50" height="50" relative="1" as="geometry">
            <mxPoint x="787.25" y="-520.0000000000002" as="sourcePoint" />
            <mxPoint x="519.5" y="-460" as="targetPoint" />
          </mxGeometry>
        </mxCell>
        <mxCell id="wcDNg7Z-eRSndHOin9jh-16" value="1,1" style="endArrow=none;html=1;fontSize=25;fontStyle=1" parent="1" source="1BS-HU7HtbE8BR-Be_lK-21" target="c2bkHcko6VeSwUFlFjgx-71" edge="1">
          <mxGeometry width="50" height="50" relative="1" as="geometry">
            <mxPoint x="1010.0000000000005" y="-500.0000000000002" as="sourcePoint" />
            <mxPoint x="907.25" y="-500.0000000000002" as="targetPoint" />
          </mxGeometry>
        </mxCell>
        <mxCell id="wcDNg7Z-eRSndHOin9jh-32" value="1,1" style="endArrow=none;html=1;fontSize=25;fontStyle=1" parent="1" source="1BS-HU7HtbE8BR-Be_lK-31" target="c2bkHcko6VeSwUFlFjgx-78" edge="1">
          <mxGeometry width="50" height="50" relative="1" as="geometry">
            <mxPoint x="980" y="-300" as="sourcePoint" />
            <mxPoint x="1029" y="-245.00000000000023" as="targetPoint" />
          </mxGeometry>
        </mxCell>
        <mxCell id="wcDNg7Z-eRSndHOin9jh-36" value="1,1" style="endArrow=none;html=1;fontSize=25;fontStyle=1" parent="1" source="c2bkHcko6VeSwUFlFjgx-56" target="1BS-HU7HtbE8BR-Be_lK-22" edge="1">
          <mxGeometry width="50" height="50" relative="1" as="geometry">
            <mxPoint x="-20" y="-850" as="sourcePoint" />
            <mxPoint x="-70" y="-870" as="targetPoint" />
          </mxGeometry>
        </mxCell>
        <mxCell id="wcDNg7Z-eRSndHOin9jh-38" value="0,n" style="endArrow=none;html=1;fontSize=25;fontStyle=1;" parent="1" source="1BS-HU7HtbE8BR-Be_lK-2" target="c2bkHcko6VeSwUFlFjgx-54" edge="1">
          <mxGeometry width="50" height="50" relative="1" as="geometry">
            <mxPoint x="359.49999999999955" y="-480" as="sourcePoint" />
            <mxPoint x="190.00000000000045" y="-670" as="targetPoint" />
          </mxGeometry>
        </mxCell>
        <mxCell id="wcDNg7Z-eRSndHOin9jh-40" value="1,1" style="endArrow=none;html=1;fontSize=25;fontStyle=1" parent="1" source="c2bkHcko6VeSwUFlFjgx-54" target="1BS-HU7HtbE8BR-Be_lK-43" edge="1">
          <mxGeometry width="50" height="50" relative="1" as="geometry">
            <mxPoint x="-20" y="-660" as="sourcePoint" />
            <mxPoint x="-70" y="-670" as="targetPoint" />
          </mxGeometry>
        </mxCell>
        <mxCell id="wcDNg7Z-eRSndHOin9jh-42" value="0,n" style="endArrow=none;html=1;fontSize=25;fontStyle=1" parent="1" source="1BS-HU7HtbE8BR-Be_lK-2" target="c2bkHcko6VeSwUFlFjgx-52" edge="1">
          <mxGeometry width="50" height="50" relative="1" as="geometry">
            <mxPoint x="310" y="-380" as="sourcePoint" />
            <mxPoint x="190.00000000000045" y="-370" as="targetPoint" />
          </mxGeometry>
        </mxCell>
        <mxCell id="wcDNg7Z-eRSndHOin9jh-44" value="0,n" style="endArrow=none;html=1;fontSize=25;fontStyle=1" parent="1" source="c2bkHcko6VeSwUFlFjgx-52" target="1BS-HU7HtbE8BR-Be_lK-5" edge="1">
          <mxGeometry width="50" height="50" relative="1" as="geometry">
            <mxPoint x="-20" y="-360" as="sourcePoint" />
            <mxPoint x="-70" y="-370" as="targetPoint" />
          </mxGeometry>
        </mxCell>
        <mxCell id="wcDNg7Z-eRSndHOin9jh-48" value="0,n" style="endArrow=none;html=1;fontSize=25;fontStyle=1" parent="1" source="1BS-HU7HtbE8BR-Be_lK-8" target="c2bkHcko6VeSwUFlFjgx-44" edge="1">
          <mxGeometry width="50" height="50" relative="1" as="geometry">
            <mxPoint x="-60" y="-50" as="sourcePoint" />
            <mxPoint x="-50" y="-2.2737367544323206e-13" as="targetPoint" />
          </mxGeometry>
        </mxCell>
        <mxCell id="wcDNg7Z-eRSndHOin9jh-64" value="0,n" style="endArrow=none;html=1;fontSize=25;fontStyle=1" parent="1" source="c2bkHcko6VeSwUFlFjgx-35" target="1BS-HU7HtbE8BR-Be_lK-37" edge="1">
          <mxGeometry width="50" height="50" relative="1" as="geometry">
            <mxPoint x="-430" y="380" as="sourcePoint" />
            <mxPoint x="-370" y="390" as="targetPoint" />
          </mxGeometry>
        </mxCell>
        <mxCell id="wcDNg7Z-eRSndHOin9jh-68" value="1,1" style="endArrow=none;html=1;fontSize=25;fontStyle=1;" parent="1" source="c2bkHcko6VeSwUFlFjgx-4" target="1BS-HU7HtbE8BR-Be_lK-22" edge="1">
          <mxGeometry width="50" height="50" relative="1" as="geometry">
            <mxPoint x="-310" y="-870" as="sourcePoint" />
            <mxPoint x="-430" y="-950" as="targetPoint" />
          </mxGeometry>
        </mxCell>
        <mxCell id="wcDNg7Z-eRSndHOin9jh-74" value="0,n" style="endArrow=none;html=1;fontSize=25;fontStyle=1" parent="1" source="1BS-HU7HtbE8BR-Be_lK-1" target="c2bkHcko6VeSwUFlFjgx-6" edge="1">
          <mxGeometry width="50" height="50" relative="1" as="geometry">
            <mxPoint x="-620" y="-420" as="sourcePoint" />
            <mxPoint x="-480" y="-470" as="targetPoint" />
          </mxGeometry>
        </mxCell>
        <mxCell id="wcDNg7Z-eRSndHOin9jh-76" value="1,1" style="endArrow=none;html=1;fontSize=25;fontStyle=1" parent="1" source="c2bkHcko6VeSwUFlFjgx-6" target="1BS-HU7HtbE8BR-Be_lK-48" edge="1">
          <mxGeometry width="50" height="50" relative="1" as="geometry">
            <mxPoint x="-330" y="-550" as="sourcePoint" />
            <mxPoint x="-360" y="-605.5" as="targetPoint" />
          </mxGeometry>
        </mxCell>
        <mxCell id="wcDNg7Z-eRSndHOin9jh-78" value="1,1" style="endArrow=none;html=1;fontSize=25;fontStyle=1" parent="1" source="1BS-HU7HtbE8BR-Be_lK-1" target="c2bkHcko6VeSwUFlFjgx-14" edge="1">
          <mxGeometry width="50" height="50" relative="1" as="geometry">
            <mxPoint x="-530" y="-390" as="sourcePoint" />
            <mxPoint x="-570" y="-390" as="targetPoint" />
          </mxGeometry>
        </mxCell>
        <mxCell id="wcDNg7Z-eRSndHOin9jh-82" value="0,n" style="endArrow=none;html=1;fontSize=25;fontStyle=1;" parent="1" source="1BS-HU7HtbE8BR-Be_lK-1" target="c2bkHcko6VeSwUFlFjgx-76" edge="1">
          <mxGeometry width="50" height="50" relative="1" as="geometry">
            <mxPoint x="-600" y="-340" as="sourcePoint" />
            <mxPoint x="-570" y="-300" as="targetPoint" />
          </mxGeometry>
        </mxCell>
        <mxCell id="wcDNg7Z-eRSndHOin9jh-84" value="0,n" style="endArrow=none;html=1;fontSize=25;fontStyle=1" parent="1" source="c2bkHcko6VeSwUFlFjgx-76" target="1BS-HU7HtbE8BR-Be_lK-28" edge="1">
          <mxGeometry width="50" height="50" relative="1" as="geometry">
            <mxPoint x="-320" y="-270" as="sourcePoint" />
            <mxPoint x="-240" y="-240" as="targetPoint" />
          </mxGeometry>
        </mxCell>
        <mxCell id="wcDNg7Z-eRSndHOin9jh-93" value="1,1" style="endArrow=none;html=1;fontSize=25;fontStyle=1;" parent="1" source="1BS-HU7HtbE8BR-Be_lK-15" target="c2bkHcko6VeSwUFlFjgx-18" edge="1">
          <mxGeometry width="50" height="50" relative="1" as="geometry">
            <mxPoint x="-170" y="20" as="sourcePoint" />
            <mxPoint x="-240" y="30" as="targetPoint" />
          </mxGeometry>
        </mxCell>
        <mxCell id="wcDNg7Z-eRSndHOin9jh-105" value="1,1" style="endArrow=none;html=1;fontSize=25;fontStyle=1;" parent="1" source="1BS-HU7HtbE8BR-Be_lK-11" target="c2bkHcko6VeSwUFlFjgx-24" edge="1">
          <mxGeometry width="50" height="50" relative="1" as="geometry">
            <mxPoint x="-1123" y="220" as="sourcePoint" />
            <mxPoint x="-1130" y="160" as="targetPoint" />
          </mxGeometry>
        </mxCell>
        <mxCell id="_-gUD8T3tB0u0Fi3S9ON-1" value="" style="group" vertex="1" connectable="0" parent="1">
          <mxGeometry x="-340" y="440" width="160" height="150" as="geometry" />
        </mxCell>
        <mxCell id="1BS-HU7HtbE8BR-Be_lK-37" value="Shipping" style="rounded=0;whiteSpace=wrap;html=1;fontSize=25;fontStyle=1;strokeWidth=5;" parent="_-gUD8T3tB0u0Fi3S9ON-1" vertex="1">
          <mxGeometry width="160" height="90" as="geometry" />
        </mxCell>
        <mxCell id="-YLVVvJB87jnQkhJQOnv-45" value="Status" style="text;html=1;strokeColor=none;fillColor=none;align=center;verticalAlign=middle;whiteSpace=wrap;rounded=0;fontSize=25;fontStyle=1" parent="_-gUD8T3tB0u0Fi3S9ON-1" vertex="1">
          <mxGeometry x="30" y="110" width="100" height="40" as="geometry" />
        </mxCell>
        <mxCell id="wcDNg7Z-eRSndHOin9jh-115" value="" style="endArrow=none;html=1;fontSize=15;startArrow=oval;startFill=0;strokeWidth=1;startSize=20;" parent="_-gUD8T3tB0u0Fi3S9ON-1" source="-YLVVvJB87jnQkhJQOnv-45" target="1BS-HU7HtbE8BR-Be_lK-37" edge="1">
          <mxGeometry width="50" height="50" relative="1" as="geometry">
            <mxPoint x="277" y="-20" as="sourcePoint" />
            <mxPoint x="254" y="-65" as="targetPoint" />
          </mxGeometry>
        </mxCell>
        <mxCell id="_-gUD8T3tB0u0Fi3S9ON-2" value="" style="group" vertex="1" connectable="0" parent="1">
          <mxGeometry x="-1050" y="450" width="300" height="90" as="geometry" />
        </mxCell>
        <mxCell id="1BS-HU7HtbE8BR-Be_lK-38" value="Courier" style="rounded=0;whiteSpace=wrap;html=1;fontSize=25;fontStyle=1;strokeWidth=5;" parent="_-gUD8T3tB0u0Fi3S9ON-2" vertex="1">
          <mxGeometry x="140" width="160" height="90" as="geometry" />
        </mxCell>
        <mxCell id="1BS-HU7HtbE8BR-Be_lK-40" value="Name" style="text;html=1;strokeColor=none;fillColor=none;align=center;verticalAlign=middle;whiteSpace=wrap;rounded=0;fontSize=25;fontStyle=1" parent="_-gUD8T3tB0u0Fi3S9ON-2" vertex="1">
          <mxGeometry y="25" width="90" height="40" as="geometry" />
        </mxCell>
        <mxCell id="c2bkHcko6VeSwUFlFjgx-61" value="" style="endArrow=oval;html=1;fontSize=25;startSize=6;startArrow=none;startFill=0;endSize=20;endFill=0;fontStyle=1;" parent="_-gUD8T3tB0u0Fi3S9ON-2" source="1BS-HU7HtbE8BR-Be_lK-38" target="1BS-HU7HtbE8BR-Be_lK-40" edge="1">
          <mxGeometry width="50" height="50" relative="1" as="geometry">
            <mxPoint x="420" y="220" as="sourcePoint" />
            <mxPoint x="390" y="110" as="targetPoint" />
          </mxGeometry>
        </mxCell>
        <mxCell id="_-gUD8T3tB0u0Fi3S9ON-3" value="" style="group" vertex="1" connectable="0" parent="1">
          <mxGeometry x="-1467" y="199.5" width="327" height="250.5" as="geometry" />
        </mxCell>
        <mxCell id="1BS-HU7HtbE8BR-Be_lK-11" value="Address" style="rounded=0;whiteSpace=wrap;html=1;fontSize=25;fontStyle=1;strokeWidth=5;" parent="_-gUD8T3tB0u0Fi3S9ON-3" vertex="1">
          <mxGeometry x="167" y="60.5" width="160" height="80" as="geometry" />
        </mxCell>
        <mxCell id="-YLVVvJB87jnQkhJQOnv-21" value="" style="endArrow=none;html=1;fontSize=25;startArrow=oval;startFill=0;startSize=20;fontStyle=1;" parent="_-gUD8T3tB0u0Fi3S9ON-3" source="-YLVVvJB87jnQkhJQOnv-24" target="1BS-HU7HtbE8BR-Be_lK-11" edge="1">
          <mxGeometry width="50" height="50" relative="1" as="geometry">
            <mxPoint x="130" y="0.5" as="sourcePoint" />
            <mxPoint x="310" y="-399.5" as="targetPoint" />
          </mxGeometry>
        </mxCell>
        <mxCell id="-YLVVvJB87jnQkhJQOnv-22" value="" style="endArrow=none;html=1;fontSize=25;startArrow=oval;startFill=0;startSize=20;fontStyle=1;" parent="_-gUD8T3tB0u0Fi3S9ON-3" source="-YLVVvJB87jnQkhJQOnv-26" target="1BS-HU7HtbE8BR-Be_lK-11" edge="1">
          <mxGeometry width="50" height="50" relative="1" as="geometry">
            <mxPoint x="100" y="110.5" as="sourcePoint" />
            <mxPoint x="140" y="110.5" as="targetPoint" />
          </mxGeometry>
        </mxCell>
        <mxCell id="-YLVVvJB87jnQkhJQOnv-23" value="" style="endArrow=none;html=1;fontSize=25;startArrow=oval;startFill=0;startSize=20;fontStyle=1;" parent="_-gUD8T3tB0u0Fi3S9ON-3" source="-YLVVvJB87jnQkhJQOnv-27" target="1BS-HU7HtbE8BR-Be_lK-11" edge="1">
          <mxGeometry width="50" height="50" relative="1" as="geometry">
            <mxPoint x="130" y="160.5" as="sourcePoint" />
            <mxPoint x="200" y="150.5" as="targetPoint" />
          </mxGeometry>
        </mxCell>
        <mxCell id="-YLVVvJB87jnQkhJQOnv-24" value="Address" style="text;html=1;strokeColor=none;fillColor=none;align=center;verticalAlign=middle;whiteSpace=wrap;rounded=0;fontSize=25;fontColor=#000000;fontStyle=1" parent="_-gUD8T3tB0u0Fi3S9ON-3" vertex="1">
          <mxGeometry x="80" width="120" height="35" as="geometry" />
        </mxCell>
        <mxCell id="-YLVVvJB87jnQkhJQOnv-25" value="" style="endArrow=none;html=1;fontSize=25;startArrow=oval;startFill=0;startSize=20;fontStyle=1;" parent="_-gUD8T3tB0u0Fi3S9ON-3" source="-YLVVvJB87jnQkhJQOnv-28" target="1BS-HU7HtbE8BR-Be_lK-11" edge="1">
          <mxGeometry width="50" height="50" relative="1" as="geometry">
            <mxPoint x="240" y="160.5" as="sourcePoint" />
            <mxPoint x="237.00000000000045" y="80.5" as="targetPoint" />
          </mxGeometry>
        </mxCell>
        <mxCell id="-YLVVvJB87jnQkhJQOnv-26" value="City&lt;span style=&quot;color: rgba(0 , 0 , 0 , 0) ; font-family: monospace ; font-size: 0px ; white-space: nowrap&quot;&gt;%3CmxGraphModel%3E%3Croot%3E%3CmxCell%20id%3D%220%22%2F%3E%3CmxCell%20id%3D%221%22%20parent%3D%220%22%2F%3E%3CmxCell%20id%3D%222%22%20value%3D%22Text%22%20style%3D%22text%3Bhtml%3D1%3BstrokeColor%3Dnone%3BfillColor%3Dnone%3Balign%3Dcenter%3BverticalAlign%3Dmiddle%3BwhiteSpace%3Dwrap%3Brounded%3D0%3BfontSize%3D25%3BfontColor%3D%23000000%3B%22%20vertex%3D%221%22%20parent%3D%221%22%3E%3CmxGeometry%20x%3D%22-550%22%20y%3D%22690%22%20width%3D%2240%22%20height%3D%2220%22%20as%3D%22geometry%22%2F%3E%3C%2FmxCell%3E%3C%2Froot%3E%3C%2FmxGraphModel%3E&lt;/span&gt;" style="text;html=1;strokeColor=none;fillColor=none;align=center;verticalAlign=middle;whiteSpace=wrap;rounded=0;fontSize=25;fontColor=#000000;fontStyle=1" parent="_-gUD8T3tB0u0Fi3S9ON-3" vertex="1">
          <mxGeometry x="40" y="50.5" width="70" height="30" as="geometry" />
        </mxCell>
        <mxCell id="-YLVVvJB87jnQkhJQOnv-27" value="Country" style="text;html=1;strokeColor=none;fillColor=none;align=center;verticalAlign=middle;whiteSpace=wrap;rounded=0;fontSize=25;fontColor=#000000;fontStyle=1" parent="_-gUD8T3tB0u0Fi3S9ON-3" vertex="1">
          <mxGeometry y="140.5" width="130" height="30" as="geometry" />
        </mxCell>
        <mxCell id="-YLVVvJB87jnQkhJQOnv-28" value="Phone Number" style="text;html=1;strokeColor=none;fillColor=none;align=center;verticalAlign=middle;whiteSpace=wrap;rounded=0;fontSize=25;fontColor=#000000;fontStyle=1" parent="_-gUD8T3tB0u0Fi3S9ON-3" vertex="1">
          <mxGeometry x="76" y="170.5" width="107" height="80" as="geometry" />
        </mxCell>
        <mxCell id="_-gUD8T3tB0u0Fi3S9ON-4" value="" style="group" vertex="1" connectable="0" parent="1">
          <mxGeometry x="-900" y="70" width="320" height="190" as="geometry" />
        </mxCell>
        <mxCell id="1BS-HU7HtbE8BR-Be_lK-13" value="Paymant Method" style="rounded=0;whiteSpace=wrap;html=1;fontSize=25;fontStyle=1;strokeWidth=5;" parent="_-gUD8T3tB0u0Fi3S9ON-4" vertex="1">
          <mxGeometry x="70" width="160" height="80" as="geometry" />
        </mxCell>
        <mxCell id="-YLVVvJB87jnQkhJQOnv-29" value="Card Number" style="text;html=1;strokeColor=none;fillColor=none;align=center;verticalAlign=middle;whiteSpace=wrap;rounded=0;fontSize=25;fontStyle=1" parent="_-gUD8T3tB0u0Fi3S9ON-4" vertex="1">
          <mxGeometry x="220" y="117.25" width="100" height="50" as="geometry" />
        </mxCell>
        <mxCell id="-YLVVvJB87jnQkhJQOnv-30" value="" style="endArrow=oval;html=1;fontSize=25;startSize=6;startArrow=none;startFill=0;endSize=20;endFill=0;fontStyle=1;" parent="_-gUD8T3tB0u0Fi3S9ON-4" source="1BS-HU7HtbE8BR-Be_lK-13" target="-YLVVvJB87jnQkhJQOnv-29" edge="1">
          <mxGeometry width="50" height="50" relative="1" as="geometry">
            <mxPoint x="150" y="90" as="sourcePoint" />
            <mxPoint x="290" y="90" as="targetPoint" />
          </mxGeometry>
        </mxCell>
        <mxCell id="-YLVVvJB87jnQkhJQOnv-31" value="Expiring" style="text;html=1;strokeColor=none;fillColor=none;align=center;verticalAlign=middle;whiteSpace=wrap;rounded=0;fontSize=25;fontStyle=1" parent="_-gUD8T3tB0u0Fi3S9ON-4" vertex="1">
          <mxGeometry y="117.25" width="120" height="35.5" as="geometry" />
        </mxCell>
        <mxCell id="-YLVVvJB87jnQkhJQOnv-32" value="" style="endArrow=oval;html=1;fontSize=25;startSize=6;startArrow=none;startFill=0;endSize=20;endFill=0;fontStyle=1;" parent="_-gUD8T3tB0u0Fi3S9ON-4" source="1BS-HU7HtbE8BR-Be_lK-13" target="-YLVVvJB87jnQkhJQOnv-31" edge="1">
          <mxGeometry width="50" height="50" relative="1" as="geometry">
            <mxPoint x="230" y="84.5" as="sourcePoint" />
            <mxPoint x="100" y="110" as="targetPoint" />
          </mxGeometry>
        </mxCell>
        <mxCell id="-YLVVvJB87jnQkhJQOnv-33" value="Card Holder" style="text;html=1;strokeColor=none;fillColor=none;align=center;verticalAlign=middle;whiteSpace=wrap;rounded=0;fontSize=25;fontStyle=1" parent="_-gUD8T3tB0u0Fi3S9ON-4" vertex="1">
          <mxGeometry x="110" y="125" width="90" height="65" as="geometry" />
        </mxCell>
        <mxCell id="-YLVVvJB87jnQkhJQOnv-34" value="" style="endArrow=oval;html=1;fontSize=25;startSize=6;startArrow=none;startFill=0;endSize=20;endFill=0;fontStyle=1;" parent="_-gUD8T3tB0u0Fi3S9ON-4" source="1BS-HU7HtbE8BR-Be_lK-13" target="-YLVVvJB87jnQkhJQOnv-33" edge="1">
          <mxGeometry width="50" height="50" relative="1" as="geometry">
            <mxPoint x="310" y="70" as="sourcePoint" />
            <mxPoint x="220" y="100" as="targetPoint" />
          </mxGeometry>
        </mxCell>
        <mxCell id="_-gUD8T3tB0u0Fi3S9ON-5" value="" style="group" vertex="1" connectable="0" parent="1">
          <mxGeometry x="-1455" y="-720" width="315" height="210" as="geometry" />
        </mxCell>
        <mxCell id="1BS-HU7HtbE8BR-Be_lK-1" value="User" style="rounded=0;whiteSpace=wrap;html=1;fontSize=25;fontStyle=1;strokeWidth=5;" parent="_-gUD8T3tB0u0Fi3S9ON-5" vertex="1">
          <mxGeometry x="155" y="90" width="160" height="80" as="geometry" />
        </mxCell>
        <mxCell id="-YLVVvJB87jnQkhJQOnv-7" value="Name" style="text;html=1;strokeColor=none;fillColor=none;align=center;verticalAlign=middle;whiteSpace=wrap;rounded=0;fontSize=25;fontStyle=1" parent="_-gUD8T3tB0u0Fi3S9ON-5" vertex="1">
          <mxGeometry x="185" width="80" height="50" as="geometry" />
        </mxCell>
        <mxCell id="-YLVVvJB87jnQkhJQOnv-8" value="" style="endArrow=none;html=1;fontSize=25;startArrow=oval;startFill=0;startSize=20;fontStyle=1;" parent="_-gUD8T3tB0u0Fi3S9ON-5" source="-YLVVvJB87jnQkhJQOnv-7" target="1BS-HU7HtbE8BR-Be_lK-1" edge="1">
          <mxGeometry width="50" height="50" relative="1" as="geometry">
            <mxPoint x="-25" y="-89" as="sourcePoint" />
            <mxPoint x="-214.99999999999955" y="10" as="targetPoint" />
          </mxGeometry>
        </mxCell>
        <mxCell id="-YLVVvJB87jnQkhJQOnv-11" value="Surname" style="text;html=1;strokeColor=none;fillColor=none;align=center;verticalAlign=middle;whiteSpace=wrap;rounded=0;fontSize=25;fontStyle=1" parent="_-gUD8T3tB0u0Fi3S9ON-5" vertex="1">
          <mxGeometry x="25" y="20" width="133" height="40" as="geometry" />
        </mxCell>
        <mxCell id="-YLVVvJB87jnQkhJQOnv-12" value="" style="endArrow=none;html=1;fontSize=25;startArrow=oval;startFill=0;startSize=20;fontStyle=1;" parent="_-gUD8T3tB0u0Fi3S9ON-5" source="-YLVVvJB87jnQkhJQOnv-11" target="1BS-HU7HtbE8BR-Be_lK-1" edge="1">
          <mxGeometry width="50" height="50" relative="1" as="geometry">
            <mxPoint x="-35" y="-10" as="sourcePoint" />
            <mxPoint x="-45" y="10" as="targetPoint" />
          </mxGeometry>
        </mxCell>
        <mxCell id="-YLVVvJB87jnQkhJQOnv-13" value="Email" style="text;html=1;strokeColor=none;fillColor=none;align=center;verticalAlign=middle;whiteSpace=wrap;rounded=0;fontSize=25;fontStyle=5;strokeWidth=1;" parent="_-gUD8T3tB0u0Fi3S9ON-5" vertex="1">
          <mxGeometry x="15" y="110" width="90" height="30" as="geometry" />
        </mxCell>
        <mxCell id="-YLVVvJB87jnQkhJQOnv-14" value="" style="endArrow=none;html=1;fontSize=25;startArrow=oval;startFill=0;startSize=20;fontStyle=1;" parent="_-gUD8T3tB0u0Fi3S9ON-5" source="-YLVVvJB87jnQkhJQOnv-13" target="1BS-HU7HtbE8BR-Be_lK-1" edge="1">
          <mxGeometry width="50" height="50" relative="1" as="geometry">
            <mxPoint x="-65" y="40" as="sourcePoint" />
            <mxPoint x="-45" y="40" as="targetPoint" />
          </mxGeometry>
        </mxCell>
        <mxCell id="-YLVVvJB87jnQkhJQOnv-17" value="Passord" style="text;html=1;strokeColor=none;fillColor=none;align=center;verticalAlign=middle;whiteSpace=wrap;rounded=0;fontSize=25;fontStyle=1" parent="_-gUD8T3tB0u0Fi3S9ON-5" vertex="1">
          <mxGeometry y="180" width="120" height="30" as="geometry" />
        </mxCell>
        <mxCell id="-YLVVvJB87jnQkhJQOnv-18" value="" style="endArrow=none;html=1;fontSize=25;startArrow=oval;startFill=0;startSize=20;fontStyle=1;" parent="_-gUD8T3tB0u0Fi3S9ON-5" source="-YLVVvJB87jnQkhJQOnv-17" target="1BS-HU7HtbE8BR-Be_lK-1" edge="1">
          <mxGeometry width="50" height="50" relative="1" as="geometry">
            <mxPoint x="-55" y="80" as="sourcePoint" />
            <mxPoint x="-35" y="140" as="targetPoint" />
          </mxGeometry>
        </mxCell>
        <mxCell id="_-gUD8T3tB0u0Fi3S9ON-6" value="" style="group" vertex="1" connectable="0" parent="1">
          <mxGeometry x="-300" y="-1070" width="313" height="220" as="geometry" />
        </mxCell>
        <mxCell id="1BS-HU7HtbE8BR-Be_lK-22" value="Review" style="rounded=0;whiteSpace=wrap;html=1;fontSize=25;fontStyle=1;strokeWidth=5;" parent="_-gUD8T3tB0u0Fi3S9ON-6" vertex="1">
          <mxGeometry x="68" y="140" width="160" height="80" as="geometry" />
        </mxCell>
        <mxCell id="-YLVVvJB87jnQkhJQOnv-67" value="Text" style="text;html=1;strokeColor=none;fillColor=none;align=center;verticalAlign=middle;whiteSpace=wrap;rounded=0;fontSize=25;fontStyle=1" parent="_-gUD8T3tB0u0Fi3S9ON-6" vertex="1">
          <mxGeometry y="60" width="60" height="40" as="geometry" />
        </mxCell>
        <mxCell id="-YLVVvJB87jnQkhJQOnv-68" value="" style="endArrow=none;html=1;fontSize=25;startArrow=oval;startFill=0;startSize=20;fontStyle=1;" parent="_-gUD8T3tB0u0Fi3S9ON-6" source="-YLVVvJB87jnQkhJQOnv-67" target="1BS-HU7HtbE8BR-Be_lK-22" edge="1">
          <mxGeometry width="50" height="50" relative="1" as="geometry">
            <mxPoint x="40" y="100" as="sourcePoint" />
            <mxPoint x="45" y="120" as="targetPoint" />
          </mxGeometry>
        </mxCell>
        <mxCell id="-YLVVvJB87jnQkhJQOnv-69" value="Time-stamp" style="text;html=1;strokeColor=none;fillColor=none;align=center;verticalAlign=middle;whiteSpace=wrap;rounded=0;fontSize=25;fontStyle=1" parent="_-gUD8T3tB0u0Fi3S9ON-6" vertex="1">
          <mxGeometry x="50" width="100" height="70" as="geometry" />
        </mxCell>
        <mxCell id="-YLVVvJB87jnQkhJQOnv-70" value="" style="endArrow=none;html=1;fontSize=25;startArrow=oval;startFill=0;startSize=20;fontStyle=1;" parent="_-gUD8T3tB0u0Fi3S9ON-6" source="-YLVVvJB87jnQkhJQOnv-69" target="1BS-HU7HtbE8BR-Be_lK-22" edge="1">
          <mxGeometry width="50" height="50" relative="1" as="geometry">
            <mxPoint x="120" y="100" as="sourcePoint" />
            <mxPoint x="130" y="100" as="targetPoint" />
          </mxGeometry>
        </mxCell>
        <mxCell id="-YLVVvJB87jnQkhJQOnv-72" value="Raiting" style="text;html=1;strokeColor=none;fillColor=none;align=center;verticalAlign=middle;whiteSpace=wrap;rounded=0;fontSize=25;fontStyle=1" parent="_-gUD8T3tB0u0Fi3S9ON-6" vertex="1">
          <mxGeometry x="143" y="30" width="110" height="40" as="geometry" />
        </mxCell>
        <mxCell id="-YLVVvJB87jnQkhJQOnv-73" value="" style="endArrow=none;html=1;fontSize=25;startArrow=oval;startFill=0;startSize=20;fontStyle=1;" parent="_-gUD8T3tB0u0Fi3S9ON-6" source="-YLVVvJB87jnQkhJQOnv-72" target="1BS-HU7HtbE8BR-Be_lK-22" edge="1">
          <mxGeometry width="50" height="50" relative="1" as="geometry">
            <mxPoint x="180" y="130" as="sourcePoint" />
            <mxPoint x="170" y="140" as="targetPoint" />
          </mxGeometry>
        </mxCell>
        <mxCell id="-YLVVvJB87jnQkhJQOnv-74" value="Title" style="text;html=1;strokeColor=none;fillColor=none;align=center;verticalAlign=middle;whiteSpace=wrap;rounded=0;fontSize=25;fontStyle=1" parent="_-gUD8T3tB0u0Fi3S9ON-6" vertex="1">
          <mxGeometry x="253" y="50" width="60" height="40" as="geometry" />
        </mxCell>
        <mxCell id="-YLVVvJB87jnQkhJQOnv-75" value="" style="endArrow=none;html=1;fontSize=25;startArrow=oval;startFill=0;startSize=20;fontStyle=1;" parent="_-gUD8T3tB0u0Fi3S9ON-6" source="-YLVVvJB87jnQkhJQOnv-74" target="1BS-HU7HtbE8BR-Be_lK-22" edge="1">
          <mxGeometry width="50" height="50" relative="1" as="geometry">
            <mxPoint x="270" y="110" as="sourcePoint" />
            <mxPoint x="260" y="140" as="targetPoint" />
          </mxGeometry>
        </mxCell>
        <mxCell id="_-gUD8T3tB0u0Fi3S9ON-7" value="" style="group" vertex="1" connectable="0" parent="1">
          <mxGeometry x="-240" y="-840" width="203" height="180" as="geometry" />
        </mxCell>
        <mxCell id="1BS-HU7HtbE8BR-Be_lK-43" value="Question" style="rounded=0;whiteSpace=wrap;html=1;fontSize=25;fontStyle=1;strokeWidth=5;" parent="_-gUD8T3tB0u0Fi3S9ON-7" vertex="1">
          <mxGeometry x="10" y="100" width="160" height="80" as="geometry" />
        </mxCell>
        <mxCell id="-YLVVvJB87jnQkhJQOnv-62" value="Text" style="text;html=1;strokeColor=none;fillColor=none;align=center;verticalAlign=middle;whiteSpace=wrap;rounded=0;fontSize=25;fontStyle=1" parent="_-gUD8T3tB0u0Fi3S9ON-7" vertex="1">
          <mxGeometry y="30" width="80" height="40" as="geometry" />
        </mxCell>
        <mxCell id="-YLVVvJB87jnQkhJQOnv-63" value="" style="endArrow=none;html=1;fontSize=25;startArrow=oval;startFill=0;startSize=20;fontStyle=1;" parent="_-gUD8T3tB0u0Fi3S9ON-7" source="-YLVVvJB87jnQkhJQOnv-62" target="1BS-HU7HtbE8BR-Be_lK-43" edge="1">
          <mxGeometry width="50" height="50" relative="1" as="geometry">
            <mxPoint y="90" as="sourcePoint" />
            <mxPoint x="50" y="110" as="targetPoint" />
          </mxGeometry>
        </mxCell>
        <mxCell id="-YLVVvJB87jnQkhJQOnv-64" value="Time-stamp" style="text;html=1;strokeColor=none;fillColor=none;align=center;verticalAlign=middle;whiteSpace=wrap;rounded=0;fontSize=25;fontStyle=1" parent="_-gUD8T3tB0u0Fi3S9ON-7" vertex="1">
          <mxGeometry x="73" width="130" height="70" as="geometry" />
        </mxCell>
        <mxCell id="-YLVVvJB87jnQkhJQOnv-65" value="" style="endArrow=none;html=1;fontSize=25;startArrow=oval;startFill=0;startSize=20;fontStyle=1;" parent="_-gUD8T3tB0u0Fi3S9ON-7" source="-YLVVvJB87jnQkhJQOnv-64" target="1BS-HU7HtbE8BR-Be_lK-43" edge="1">
          <mxGeometry width="50" height="50" relative="1" as="geometry">
            <mxPoint x="70" y="120" as="sourcePoint" />
            <mxPoint x="90" y="110" as="targetPoint" />
          </mxGeometry>
        </mxCell>
        <mxCell id="_-gUD8T3tB0u0Fi3S9ON-8" value="" style="group" vertex="1" connectable="0" parent="1">
          <mxGeometry x="-230" y="-530" width="283" height="110" as="geometry" />
        </mxCell>
        <mxCell id="1BS-HU7HtbE8BR-Be_lK-48" value="Answer" style="rounded=0;whiteSpace=wrap;html=1;fontSize=25;fontStyle=1;strokeWidth=5;" parent="_-gUD8T3tB0u0Fi3S9ON-8" vertex="1">
          <mxGeometry y="30" width="160" height="80" as="geometry" />
        </mxCell>
        <mxCell id="-YLVVvJB87jnQkhJQOnv-56" value="Text" style="text;html=1;strokeColor=none;fillColor=none;align=center;verticalAlign=middle;whiteSpace=wrap;rounded=0;fontSize=25;fontStyle=1" parent="_-gUD8T3tB0u0Fi3S9ON-8" vertex="1">
          <mxGeometry x="203" width="70" height="40" as="geometry" />
        </mxCell>
        <mxCell id="-YLVVvJB87jnQkhJQOnv-57" value="" style="endArrow=none;html=1;fontSize=25;startArrow=oval;startFill=0;startSize=20;fontStyle=1;" parent="_-gUD8T3tB0u0Fi3S9ON-8" source="-YLVVvJB87jnQkhJQOnv-56" target="1BS-HU7HtbE8BR-Be_lK-48" edge="1">
          <mxGeometry width="50" height="50" relative="1" as="geometry">
            <mxPoint x="230" y="20" as="sourcePoint" />
            <mxPoint x="231.5" y="30" as="targetPoint" />
          </mxGeometry>
        </mxCell>
        <mxCell id="-YLVVvJB87jnQkhJQOnv-58" value="Time-stamp" style="text;html=1;strokeColor=none;fillColor=none;align=center;verticalAlign=middle;whiteSpace=wrap;rounded=0;fontSize=25;fontStyle=1" parent="_-gUD8T3tB0u0Fi3S9ON-8" vertex="1">
          <mxGeometry x="193" y="60" width="90" height="50" as="geometry" />
        </mxCell>
        <mxCell id="-YLVVvJB87jnQkhJQOnv-59" value="" style="endArrow=none;html=1;fontSize=25;startArrow=oval;startFill=0;startSize=20;fontStyle=1;" parent="_-gUD8T3tB0u0Fi3S9ON-8" source="-YLVVvJB87jnQkhJQOnv-58" target="1BS-HU7HtbE8BR-Be_lK-48" edge="1">
          <mxGeometry width="50" height="50" relative="1" as="geometry">
            <mxPoint x="220" y="70" as="sourcePoint" />
            <mxPoint x="300" y="40" as="targetPoint" />
          </mxGeometry>
        </mxCell>
        <mxCell id="_-gUD8T3tB0u0Fi3S9ON-9" value="" style="group" vertex="1" connectable="0" parent="1">
          <mxGeometry x="-240" y="-280" width="311.5" height="100" as="geometry" />
        </mxCell>
        <mxCell id="1BS-HU7HtbE8BR-Be_lK-28" value="Coupon" style="rounded=0;whiteSpace=wrap;html=1;fontSize=25;fontStyle=1;strokeWidth=5;" parent="_-gUD8T3tB0u0Fi3S9ON-9" vertex="1">
          <mxGeometry width="160" height="80" as="geometry" />
        </mxCell>
        <mxCell id="JhoJgSZ-DnbhLKUGNoJm-10" value="" style="endArrow=none;html=1;fontSize=15;startArrow=oval;startFill=0;strokeWidth=1;startSize=20;" parent="_-gUD8T3tB0u0Fi3S9ON-9" source="JhoJgSZ-DnbhLKUGNoJm-11" target="1BS-HU7HtbE8BR-Be_lK-28" edge="1">
          <mxGeometry width="50" height="50" relative="1" as="geometry">
            <mxPoint x="110" y="100" as="sourcePoint" />
            <mxPoint x="1620.5" y="50" as="targetPoint" />
          </mxGeometry>
        </mxCell>
        <mxCell id="JhoJgSZ-DnbhLKUGNoJm-11" value="Code" style="text;html=1;strokeColor=none;fillColor=none;align=center;verticalAlign=middle;whiteSpace=wrap;rounded=0;fontSize=25;fontStyle=1" parent="_-gUD8T3tB0u0Fi3S9ON-9" vertex="1">
          <mxGeometry x="189" y="70" width="74" height="30" as="geometry" />
        </mxCell>
        <mxCell id="wcDNg7Z-eRSndHOin9jh-26" value="" style="endArrow=none;html=1;fontSize=15;startArrow=oval;startFill=0;strokeWidth=1;startSize=20;" parent="_-gUD8T3tB0u0Fi3S9ON-9" source="wcDNg7Z-eRSndHOin9jh-27" target="1BS-HU7HtbE8BR-Be_lK-28" edge="1">
          <mxGeometry width="50" height="50" relative="1" as="geometry">
            <mxPoint x="190" y="20" as="sourcePoint" />
            <mxPoint x="276" y="20" as="targetPoint" />
          </mxGeometry>
        </mxCell>
        <mxCell id="wcDNg7Z-eRSndHOin9jh-27" value="Discount" style="text;html=1;strokeColor=none;fillColor=none;align=center;verticalAlign=middle;whiteSpace=wrap;rounded=0;fontSize=25;fontStyle=1" parent="_-gUD8T3tB0u0Fi3S9ON-9" vertex="1">
          <mxGeometry x="184.5" y="10" width="127" height="30" as="geometry" />
        </mxCell>
        <mxCell id="_-gUD8T3tB0u0Fi3S9ON-12" value="" style="group" vertex="1" connectable="0" parent="1">
          <mxGeometry x="-240" y="60" width="263" height="160" as="geometry" />
        </mxCell>
        <mxCell id="1BS-HU7HtbE8BR-Be_lK-15" value="Order" style="rounded=0;whiteSpace=wrap;html=1;fontSize=25;fontStyle=1;strokeWidth=5;" parent="_-gUD8T3tB0u0Fi3S9ON-12" vertex="1">
          <mxGeometry width="160" height="90" as="geometry" />
        </mxCell>
        <mxCell id="-YLVVvJB87jnQkhJQOnv-48" value="Number" style="text;html=1;strokeColor=none;fillColor=none;align=center;verticalAlign=middle;whiteSpace=wrap;rounded=0;fontSize=25;fontStyle=1" parent="_-gUD8T3tB0u0Fi3S9ON-12" vertex="1">
          <mxGeometry x="53" y="130" width="107" height="30" as="geometry" />
        </mxCell>
        <mxCell id="-YLVVvJB87jnQkhJQOnv-52" value="Total" style="text;html=1;strokeColor=none;fillColor=none;align=center;verticalAlign=middle;whiteSpace=wrap;rounded=0;fontSize=25;fontStyle=1" parent="_-gUD8T3tB0u0Fi3S9ON-12" vertex="1">
          <mxGeometry x="203" y="104.5" width="60" height="35" as="geometry" />
        </mxCell>
        <mxCell id="by_JS9gwS4sOBNNxv6wP-27" value="" style="endArrow=none;html=1;fontSize=25;startArrow=oval;startFill=0;startSize=20;fontStyle=1" parent="_-gUD8T3tB0u0Fi3S9ON-12" source="-YLVVvJB87jnQkhJQOnv-48" target="1BS-HU7HtbE8BR-Be_lK-15" edge="1">
          <mxGeometry width="50" height="50" relative="1" as="geometry">
            <mxPoint x="407.5757575757575" y="134.99999999999955" as="sourcePoint" />
            <mxPoint x="409.99999999999955" y="95.00000000000045" as="targetPoint" />
          </mxGeometry>
        </mxCell>
        <mxCell id="by_JS9gwS4sOBNNxv6wP-28" value="" style="endArrow=none;html=1;fontSize=25;startArrow=oval;startFill=0;startSize=20;fontStyle=1" parent="_-gUD8T3tB0u0Fi3S9ON-12" source="-YLVVvJB87jnQkhJQOnv-52" target="1BS-HU7HtbE8BR-Be_lK-15" edge="1">
          <mxGeometry width="50" height="50" relative="1" as="geometry">
            <mxPoint x="417.5757575757575" y="144.99999999999955" as="sourcePoint" />
            <mxPoint x="419.99999999999955" y="105.00000000000045" as="targetPoint" />
          </mxGeometry>
        </mxCell>
        <mxCell id="_-gUD8T3tB0u0Fi3S9ON-13" value="" style="group" vertex="1" connectable="0" parent="1">
          <mxGeometry x="40" y="60" width="260" height="159.5" as="geometry" />
        </mxCell>
        <mxCell id="1BS-HU7HtbE8BR-Be_lK-26" value="Quantity" style="text;html=1;strokeColor=none;fillColor=none;align=center;verticalAlign=middle;whiteSpace=wrap;rounded=0;fontSize=25;fontStyle=1" parent="_-gUD8T3tB0u0Fi3S9ON-13" vertex="1">
          <mxGeometry y="99.5" width="107" height="35.5" as="geometry" />
        </mxCell>
        <mxCell id="c2bkHcko6VeSwUFlFjgx-37" value="Compose" style="rhombus;whiteSpace=wrap;html=1;fontSize=25;fontStyle=1;fillColor=#fff2cc;strokeColor=#d6b656;" parent="_-gUD8T3tB0u0Fi3S9ON-13" vertex="1">
          <mxGeometry x="20" width="200" height="80" as="geometry" />
        </mxCell>
        <mxCell id="c2bkHcko6VeSwUFlFjgx-39" value="" style="endArrow=none;html=1;fontSize=25;startArrow=oval;startFill=0;startSize=20;fontStyle=1" parent="_-gUD8T3tB0u0Fi3S9ON-13" source="1BS-HU7HtbE8BR-Be_lK-26" target="c2bkHcko6VeSwUFlFjgx-37" edge="1">
          <mxGeometry width="50" height="50" relative="1" as="geometry">
            <mxPoint x="130" y="105" as="sourcePoint" />
            <mxPoint x="220" y="140" as="targetPoint" />
          </mxGeometry>
        </mxCell>
        <mxCell id="-YLVVvJB87jnQkhJQOnv-4" value="" style="endArrow=none;html=1;fontSize=25;startArrow=oval;startFill=0;startSize=20;fontStyle=1;" parent="_-gUD8T3tB0u0Fi3S9ON-13" source="-YLVVvJB87jnQkhJQOnv-6" target="c2bkHcko6VeSwUFlFjgx-37" edge="1">
          <mxGeometry width="50" height="50" relative="1" as="geometry">
            <mxPoint x="260" y="60" as="sourcePoint" />
            <mxPoint x="180" y="105" as="targetPoint" />
          </mxGeometry>
        </mxCell>
        <mxCell id="-YLVVvJB87jnQkhJQOnv-6" value="Price-stamp" style="text;html=1;strokeColor=none;fillColor=none;align=center;verticalAlign=middle;whiteSpace=wrap;rounded=0;fontSize=25;fontStyle=1" parent="_-gUD8T3tB0u0Fi3S9ON-13" vertex="1">
          <mxGeometry x="160" y="99.5" width="100" height="60" as="geometry" />
        </mxCell>
        <mxCell id="_-gUD8T3tB0u0Fi3S9ON-14" value="" style="group" vertex="1" connectable="0" parent="1">
          <mxGeometry x="60" y="-100" width="200" height="135" as="geometry" />
        </mxCell>
        <mxCell id="c2bkHcko6VeSwUFlFjgx-43" value="Quantity" style="text;html=1;strokeColor=none;fillColor=none;align=center;verticalAlign=middle;whiteSpace=wrap;rounded=0;fontSize=25;fontStyle=1" parent="_-gUD8T3tB0u0Fi3S9ON-14" vertex="1">
          <mxGeometry x="40" y="105" width="120" height="30" as="geometry" />
        </mxCell>
        <mxCell id="c2bkHcko6VeSwUFlFjgx-45" value="" style="endArrow=none;html=1;fontSize=25;startArrow=oval;startFill=0;startSize=20;fontStyle=1" parent="_-gUD8T3tB0u0Fi3S9ON-14" source="c2bkHcko6VeSwUFlFjgx-43" target="c2bkHcko6VeSwUFlFjgx-44" edge="1">
          <mxGeometry width="50" height="50" relative="1" as="geometry">
            <mxPoint x="110" y="90" as="sourcePoint" />
            <mxPoint x="183" y="-70" as="targetPoint" />
          </mxGeometry>
        </mxCell>
        <mxCell id="c2bkHcko6VeSwUFlFjgx-44" value="Contain" style="rhombus;whiteSpace=wrap;html=1;fontSize=25;fontStyle=1;fillColor=#fff2cc;strokeColor=#d6b656;" parent="_-gUD8T3tB0u0Fi3S9ON-14" vertex="1">
          <mxGeometry width="200" height="80" as="geometry" />
        </mxCell>
        <mxCell id="_-gUD8T3tB0u0Fi3S9ON-15" value="" style="group" vertex="1" connectable="0" parent="1">
          <mxGeometry x="359.5" y="-950" width="160" height="180" as="geometry" />
        </mxCell>
        <mxCell id="1BS-HU7HtbE8BR-Be_lK-3" value="Category" style="rounded=0;whiteSpace=wrap;html=1;fontSize=25;fontStyle=1;strokeWidth=5;" parent="_-gUD8T3tB0u0Fi3S9ON-15" vertex="1">
          <mxGeometry y="100" width="160" height="80" as="geometry" />
        </mxCell>
        <mxCell id="JhoJgSZ-DnbhLKUGNoJm-1" value="" style="endArrow=none;html=1;fontSize=15;startArrow=oval;startFill=0;strokeWidth=1;startSize=20;" parent="_-gUD8T3tB0u0Fi3S9ON-15" source="JhoJgSZ-DnbhLKUGNoJm-3" target="1BS-HU7HtbE8BR-Be_lK-3" edge="1">
          <mxGeometry width="50" height="50" relative="1" as="geometry">
            <mxPoint x="60.5" y="50" as="sourcePoint" />
            <mxPoint x="40.5" y="80" as="targetPoint" />
          </mxGeometry>
        </mxCell>
        <mxCell id="JhoJgSZ-DnbhLKUGNoJm-3" value="Name" style="text;html=1;strokeColor=none;fillColor=none;align=center;verticalAlign=middle;whiteSpace=wrap;rounded=0;fontSize=25;fontStyle=1" parent="_-gUD8T3tB0u0Fi3S9ON-15" vertex="1">
          <mxGeometry x="35.25" width="89.5" height="40" as="geometry" />
        </mxCell>
        <mxCell id="_-gUD8T3tB0u0Fi3S9ON-16" value="" style="group" vertex="1" connectable="0" parent="1">
          <mxGeometry x="570" y="-950" width="210" height="180" as="geometry" />
        </mxCell>
        <mxCell id="1BS-HU7HtbE8BR-Be_lK-41" value="Showcase" style="rounded=0;whiteSpace=wrap;html=1;fontSize=25;fontStyle=1;strokeWidth=5;" parent="_-gUD8T3tB0u0Fi3S9ON-16" vertex="1">
          <mxGeometry x="30" y="100" width="160" height="80" as="geometry" />
        </mxCell>
        <mxCell id="-YLVVvJB87jnQkhJQOnv-1" value="" style="endArrow=none;html=1;startArrow=oval;startFill=0;startSize=20;fontStyle=1;" parent="_-gUD8T3tB0u0Fi3S9ON-16" source="-YLVVvJB87jnQkhJQOnv-2" target="1BS-HU7HtbE8BR-Be_lK-41" edge="1">
          <mxGeometry width="50" height="50" relative="1" as="geometry">
            <mxPoint x="30" y="60" as="sourcePoint" />
            <mxPoint x="80" y="70" as="targetPoint" />
          </mxGeometry>
        </mxCell>
        <mxCell id="-YLVVvJB87jnQkhJQOnv-2" value="Banner" style="text;html=1;strokeColor=none;fillColor=none;align=center;verticalAlign=middle;whiteSpace=wrap;rounded=0;fontSize=25;fontStyle=1" parent="_-gUD8T3tB0u0Fi3S9ON-16" vertex="1">
          <mxGeometry width="90" height="40" as="geometry" />
        </mxCell>
        <mxCell id="EQdbjrmBme3_tEqbwGJx-1" value="" style="endArrow=none;html=1;fontSize=15;startArrow=oval;startFill=0;strokeWidth=1;startSize=20;" parent="_-gUD8T3tB0u0Fi3S9ON-16" source="EQdbjrmBme3_tEqbwGJx-2" target="1BS-HU7HtbE8BR-Be_lK-41" edge="1">
          <mxGeometry width="50" height="50" relative="1" as="geometry">
            <mxPoint x="140" y="70" as="sourcePoint" />
            <mxPoint x="189.99999999999955" y="100" as="targetPoint" />
          </mxGeometry>
        </mxCell>
        <mxCell id="EQdbjrmBme3_tEqbwGJx-2" value="Name" style="text;html=1;strokeColor=none;fillColor=none;align=center;verticalAlign=middle;whiteSpace=wrap;rounded=0;fontSize=25;fontStyle=1" parent="_-gUD8T3tB0u0Fi3S9ON-16" vertex="1">
          <mxGeometry x="120" width="90" height="40" as="geometry" />
        </mxCell>
        <mxCell id="_-gUD8T3tB0u0Fi3S9ON-17" value="" style="group" vertex="1" connectable="0" parent="1">
          <mxGeometry x="1030" y="-600" width="160" height="190" as="geometry" />
        </mxCell>
        <mxCell id="1BS-HU7HtbE8BR-Be_lK-21" value="Image" style="rounded=0;whiteSpace=wrap;html=1;fontSize=25;fontStyle=1;strokeWidth=5;" parent="_-gUD8T3tB0u0Fi3S9ON-17" vertex="1">
          <mxGeometry y="110" width="160" height="80" as="geometry" />
        </mxCell>
        <mxCell id="JhoJgSZ-DnbhLKUGNoJm-4" value="" style="endArrow=none;html=1;fontSize=15;startArrow=oval;startFill=0;strokeWidth=1;startSize=20;" parent="_-gUD8T3tB0u0Fi3S9ON-17" source="JhoJgSZ-DnbhLKUGNoJm-5" target="1BS-HU7HtbE8BR-Be_lK-21" edge="1">
          <mxGeometry width="50" height="50" relative="1" as="geometry">
            <mxPoint x="50" y="60" as="sourcePoint" />
            <mxPoint x="40" y="80" as="targetPoint" />
          </mxGeometry>
        </mxCell>
        <mxCell id="JhoJgSZ-DnbhLKUGNoJm-5" value="Image" style="text;html=1;strokeColor=none;fillColor=none;align=center;verticalAlign=middle;whiteSpace=wrap;rounded=0;fontSize=25;fontStyle=1" parent="_-gUD8T3tB0u0Fi3S9ON-17" vertex="1">
          <mxGeometry x="30" width="100" height="40" as="geometry" />
        </mxCell>
        <mxCell id="_-gUD8T3tB0u0Fi3S9ON-19" value="" style="group" vertex="1" connectable="0" parent="1">
          <mxGeometry x="1020" y="-370" width="295.5" height="80" as="geometry" />
        </mxCell>
        <mxCell id="1BS-HU7HtbE8BR-Be_lK-29" value="Brand" style="rounded=0;whiteSpace=wrap;html=1;fontSize=25;fontStyle=1;strokeWidth=5;" parent="_-gUD8T3tB0u0Fi3S9ON-19" vertex="1">
          <mxGeometry width="160" height="80" as="geometry" />
        </mxCell>
        <mxCell id="JhoJgSZ-DnbhLKUGNoJm-8" value="" style="endArrow=none;html=1;fontSize=15;startArrow=oval;startFill=0;strokeWidth=1;startSize=20;" parent="_-gUD8T3tB0u0Fi3S9ON-19" source="JhoJgSZ-DnbhLKUGNoJm-9" target="1BS-HU7HtbE8BR-Be_lK-29" edge="1">
          <mxGeometry width="50" height="50" relative="1" as="geometry">
            <mxPoint x="210" y="60" as="sourcePoint" />
            <mxPoint x="190" y="20" as="targetPoint" />
          </mxGeometry>
        </mxCell>
        <mxCell id="JhoJgSZ-DnbhLKUGNoJm-9" value="Name" style="text;html=1;strokeColor=none;fillColor=none;align=center;verticalAlign=middle;whiteSpace=wrap;rounded=0;fontSize=25;fontStyle=1" parent="_-gUD8T3tB0u0Fi3S9ON-19" vertex="1">
          <mxGeometry x="200" y="20" width="95.5" height="40" as="geometry" />
        </mxCell>
        <mxCell id="_-gUD8T3tB0u0Fi3S9ON-20" value="" style="group" vertex="1" connectable="0" parent="1">
          <mxGeometry x="940" y="-260" width="310" height="150" as="geometry" />
        </mxCell>
        <mxCell id="1BS-HU7HtbE8BR-Be_lK-31" value="Stock" style="rounded=0;whiteSpace=wrap;html=1;fontSize=25;fontStyle=1;strokeWidth=5;" parent="_-gUD8T3tB0u0Fi3S9ON-20" vertex="1">
          <mxGeometry x="80" width="160" height="80" as="geometry" />
        </mxCell>
        <mxCell id="1BS-HU7HtbE8BR-Be_lK-33" value="Color&lt;span style=&quot;color: rgba(0, 0, 0, 0); font-family: monospace; font-size: 0px; white-space: nowrap;&quot;&gt;%3CmxGraphModel%3E%3Croot%3E%3CmxCell%20id%3D%220%22%2F%3E%3CmxCell%20id%3D%221%22%20parent%3D%220%22%2F%3E%3CmxCell%20id%3D%222%22%20value%3D%22Quantity%22%20style%3D%22text%3Bhtml%3D1%3BstrokeColor%3Dnone%3BfillColor%3Dnone%3Balign%3Dcenter%3BverticalAlign%3Dmiddle%3BwhiteSpace%3Dwrap%3Brounded%3D0%3BfontSize%3D25%3BfontStyle%3D1%22%20vertex%3D%221%22%20parent%3D%221%22%3E%3CmxGeometry%20x%3D%22590%22%20y%3D%22350%22%20width%3D%2240%22%20height%3D%2220%22%20as%3D%22geometry%22%2F%3E%3C%2FmxCell%3E%3C%2Froot%3E%3C%2FmxGraphModel%3E&lt;/span&gt;" style="text;html=1;strokeColor=none;fillColor=none;align=center;verticalAlign=middle;whiteSpace=wrap;rounded=0;fontSize=25;fontStyle=1" parent="_-gUD8T3tB0u0Fi3S9ON-20" vertex="1">
          <mxGeometry x="220" y="100" width="90" height="40" as="geometry" />
        </mxCell>
        <mxCell id="1BS-HU7HtbE8BR-Be_lK-34" value="Quantity" style="text;html=1;strokeColor=none;fillColor=none;align=center;verticalAlign=middle;whiteSpace=wrap;rounded=0;fontSize=25;fontStyle=1" parent="_-gUD8T3tB0u0Fi3S9ON-20" vertex="1">
          <mxGeometry y="100" width="125.5" height="50" as="geometry" />
        </mxCell>
        <mxCell id="1BS-HU7HtbE8BR-Be_lK-35" value="Size" style="text;html=1;strokeColor=none;fillColor=none;align=center;verticalAlign=middle;whiteSpace=wrap;rounded=0;fontSize=25;fontStyle=1" parent="_-gUD8T3tB0u0Fi3S9ON-20" vertex="1">
          <mxGeometry x="120" y="110" width="80" height="40" as="geometry" />
        </mxCell>
        <mxCell id="c2bkHcko6VeSwUFlFjgx-80" value="" style="endArrow=none;html=1;fontSize=25;startArrow=oval;startFill=0;startSize=20;fontStyle=1;" parent="_-gUD8T3tB0u0Fi3S9ON-20" source="1BS-HU7HtbE8BR-Be_lK-34" target="1BS-HU7HtbE8BR-Be_lK-31" edge="1">
          <mxGeometry width="50" height="50" relative="1" as="geometry">
            <mxPoint x="120" y="240" as="sourcePoint" />
            <mxPoint x="100" y="120" as="targetPoint" />
            <Array as="points" />
          </mxGeometry>
        </mxCell>
        <mxCell id="c2bkHcko6VeSwUFlFjgx-98" value="" style="endArrow=none;html=1;fontSize=25;startArrow=oval;startFill=0;startSize=20;fontStyle=1;" parent="_-gUD8T3tB0u0Fi3S9ON-20" source="1BS-HU7HtbE8BR-Be_lK-35" target="1BS-HU7HtbE8BR-Be_lK-31" edge="1">
          <mxGeometry width="50" height="50" relative="1" as="geometry">
            <mxPoint x="170" y="150" as="sourcePoint" />
            <mxPoint x="170" y="120" as="targetPoint" />
          </mxGeometry>
        </mxCell>
        <mxCell id="c2bkHcko6VeSwUFlFjgx-100" value="" style="endArrow=none;html=1;fontSize=25;startArrow=oval;startFill=0;startSize=20;fontStyle=1;" parent="_-gUD8T3tB0u0Fi3S9ON-20" source="1BS-HU7HtbE8BR-Be_lK-33" target="1BS-HU7HtbE8BR-Be_lK-31" edge="1">
          <mxGeometry width="50" height="50" relative="1" as="geometry">
            <mxPoint x="270" y="100" as="sourcePoint" />
            <mxPoint x="120" y="120" as="targetPoint" />
          </mxGeometry>
        </mxCell>
        <mxCell id="_-gUD8T3tB0u0Fi3S9ON-21" value="" style="group" vertex="1" connectable="0" parent="1">
          <mxGeometry x="360" y="-160" width="450" height="215" as="geometry" />
        </mxCell>
        <mxCell id="1BS-HU7HtbE8BR-Be_lK-2" value="Product" style="rounded=0;whiteSpace=wrap;html=1;fontSize=25;fontStyle=1;strokeWidth=5;" parent="_-gUD8T3tB0u0Fi3S9ON-21" vertex="1">
          <mxGeometry x="89.5" y="20" width="160" height="80" as="geometry" />
        </mxCell>
        <mxCell id="JhoJgSZ-DnbhLKUGNoJm-13" value="" style="endArrow=none;html=1;fontSize=15;startArrow=oval;startFill=0;strokeWidth=1;startSize=20;" parent="_-gUD8T3tB0u0Fi3S9ON-21" source="JhoJgSZ-DnbhLKUGNoJm-14" target="1BS-HU7HtbE8BR-Be_lK-2" edge="1">
          <mxGeometry width="50" height="50" relative="1" as="geometry">
            <mxPoint x="80" y="50" as="sourcePoint" />
            <mxPoint x="39" y="-190" as="targetPoint" />
            <Array as="points" />
          </mxGeometry>
        </mxCell>
        <mxCell id="JhoJgSZ-DnbhLKUGNoJm-14" value="Name" style="text;html=1;strokeColor=none;fillColor=none;align=center;verticalAlign=middle;whiteSpace=wrap;rounded=0;fontSize=25;fontStyle=1" parent="_-gUD8T3tB0u0Fi3S9ON-21" vertex="1">
          <mxGeometry y="135" width="89.5" height="40" as="geometry" />
        </mxCell>
        <mxCell id="JhoJgSZ-DnbhLKUGNoJm-18" value="Summary" style="text;html=1;strokeColor=none;fillColor=none;align=center;verticalAlign=middle;whiteSpace=wrap;rounded=0;fontSize=25;fontStyle=1" parent="_-gUD8T3tB0u0Fi3S9ON-21" vertex="1">
          <mxGeometry x="300" width="150" height="40" as="geometry" />
        </mxCell>
        <mxCell id="JhoJgSZ-DnbhLKUGNoJm-19" value="" style="endArrow=none;html=1;fontSize=25;startArrow=oval;startFill=0;startSize=20;fontStyle=1;" parent="_-gUD8T3tB0u0Fi3S9ON-21" source="JhoJgSZ-DnbhLKUGNoJm-18" target="1BS-HU7HtbE8BR-Be_lK-2" edge="1">
          <mxGeometry width="50" height="50" relative="1" as="geometry">
            <mxPoint x="220" y="-150" as="sourcePoint" />
            <mxPoint x="39.5" y="-130" as="targetPoint" />
          </mxGeometry>
        </mxCell>
        <mxCell id="JhoJgSZ-DnbhLKUGNoJm-21" value="Price" style="text;html=1;strokeColor=none;fillColor=none;align=center;verticalAlign=middle;whiteSpace=wrap;rounded=0;fontSize=25;fontStyle=1" parent="_-gUD8T3tB0u0Fi3S9ON-21" vertex="1">
          <mxGeometry x="300" y="75" width="100" height="40" as="geometry" />
        </mxCell>
        <mxCell id="JhoJgSZ-DnbhLKUGNoJm-22" value="" style="endArrow=none;html=1;fontSize=25;startArrow=oval;startFill=0;startSize=20;fontStyle=1;" parent="_-gUD8T3tB0u0Fi3S9ON-21" source="JhoJgSZ-DnbhLKUGNoJm-21" target="1BS-HU7HtbE8BR-Be_lK-2" edge="1">
          <mxGeometry width="50" height="50" relative="1" as="geometry">
            <mxPoint x="160" y="-130" as="sourcePoint" />
            <mxPoint x="40" y="-91" as="targetPoint" />
          </mxGeometry>
        </mxCell>
        <mxCell id="JhoJgSZ-DnbhLKUGNoJm-23" value="Sale" style="text;html=1;strokeColor=none;fillColor=none;align=center;verticalAlign=middle;whiteSpace=wrap;rounded=0;fontSize=25;fontStyle=1" parent="_-gUD8T3tB0u0Fi3S9ON-21" vertex="1">
          <mxGeometry x="159.5" y="175" width="90" height="40" as="geometry" />
        </mxCell>
        <mxCell id="JhoJgSZ-DnbhLKUGNoJm-24" value="" style="endArrow=none;html=1;fontSize=25;startArrow=oval;startFill=0;startSize=20;fontStyle=1;" parent="_-gUD8T3tB0u0Fi3S9ON-21" source="JhoJgSZ-DnbhLKUGNoJm-25" target="1BS-HU7HtbE8BR-Be_lK-2" edge="1">
          <mxGeometry width="50" height="50" relative="1" as="geometry">
            <mxPoint x="130" y="-100" as="sourcePoint" />
            <mxPoint x="20" y="-80" as="targetPoint" />
          </mxGeometry>
        </mxCell>
        <mxCell id="JhoJgSZ-DnbhLKUGNoJm-25" value="Description" style="text;html=1;strokeColor=none;fillColor=none;align=center;verticalAlign=middle;whiteSpace=wrap;rounded=0;fontSize=25;fontStyle=1" parent="_-gUD8T3tB0u0Fi3S9ON-21" vertex="1">
          <mxGeometry x="234.75" y="135" width="170.5" height="50" as="geometry" />
        </mxCell>
        <mxCell id="JhoJgSZ-DnbhLKUGNoJm-26" value="" style="endArrow=none;html=1;fontSize=25;startArrow=oval;startFill=0;startSize=20;fontStyle=1;" parent="_-gUD8T3tB0u0Fi3S9ON-21" source="JhoJgSZ-DnbhLKUGNoJm-23" target="1BS-HU7HtbE8BR-Be_lK-2" edge="1">
          <mxGeometry width="50" height="50" relative="1" as="geometry">
            <mxPoint x="110" y="-90" as="sourcePoint" />
            <mxPoint x="79" y="-200" as="targetPoint" />
          </mxGeometry>
        </mxCell>
        <mxCell id="JhoJgSZ-DnbhLKUGNoJm-27" value="Details" style="text;html=1;strokeColor=none;fillColor=none;align=center;verticalAlign=middle;whiteSpace=wrap;rounded=0;fontSize=25;fontStyle=1" parent="_-gUD8T3tB0u0Fi3S9ON-21" vertex="1">
          <mxGeometry x="60" y="167.5" width="110" height="45" as="geometry" />
        </mxCell>
        <mxCell id="JhoJgSZ-DnbhLKUGNoJm-28" value="" style="endArrow=none;html=1;fontSize=25;startArrow=oval;startFill=0;startSize=20;fontStyle=1;" parent="_-gUD8T3tB0u0Fi3S9ON-21" source="JhoJgSZ-DnbhLKUGNoJm-27" target="1BS-HU7HtbE8BR-Be_lK-2" edge="1">
          <mxGeometry width="50" height="50" relative="1" as="geometry">
            <mxPoint x="90" y="-40" as="sourcePoint" />
            <mxPoint x="60" y="-190" as="targetPoint" />
          </mxGeometry>
        </mxCell>
      </root>
    </mxGraphModel>
  </diagram>
</mxfile>
